HIERARCHY
ROOT Hips
{
    OFFSET   0.000000   0.000000   0.000000
    CHANNELS 6 Xposition Yposition Zposition Zrotation Xrotation Yrotation
    JOINT Chest
    {
        OFFSET   0.000000   8.007230   0.000000
        CHANNELS 3 Zrotation Xrotation Yrotation
        JOINT Chest2
        {
            OFFSET   0.000000  22.077100   0.000000
            CHANNELS 3 Zrotation Xrotation Yrotation
            JOINT Neck
            {
                OFFSET   0.000000  23.254800   0.000000
                CHANNELS 3 Zrotation Xrotation Yrotation
                JOINT Head
                {
                    OFFSET   0.000010  14.370000   1.956600
                    CHANNELS 3 Zrotation Xrotation Yrotation
                    End Site
                    {
                        OFFSET   0.000000  19.566000   0.000000
                    }
                }
            }
            JOINT LeftCollar
            {
                OFFSET   3.911900  19.017000  -0.467062
                CHANNELS 3 Zrotation Xrotation Yrotation
                JOINT LeftShoulder
                {
                    OFFSET  10.383700   0.000000   0.000000
                    CHANNELS 3 Zrotation Xrotation Yrotation
                    JOINT LeftElbow
                    {
                        OFFSET  26.662100   0.001193   0.000835
                        CHANNELS 3 Zrotation Xrotation Yrotation
                        JOINT LeftWrist
                        {
                            OFFSET  28.869000  -0.000058  -0.000075
                            CHANNELS 3 Zrotation Xrotation Yrotation
                            JOINT LeftFinger0
                            {
                                OFFSET   2.044660  -2.323460   3.252850
                                CHANNELS 3 Zrotation Xrotation Yrotation
                                JOINT LeftFinger01
                                {
                                    OFFSET   3.088130   0.000000   0.000000
                                    CHANNELS 3 Zrotation Xrotation Yrotation
                                    JOINT LeftFinger02
                                    {
                                        OFFSET   2.639450   0.000000   0.000000
                                        CHANNELS 3 Zrotation Xrotation Yrotation
                                        End Site
                                        {
                                            OFFSET   2.582190   0.000000   0.000000
                                        }
                                    }
                                }
                            }
                            JOINT LeftFinger1
                            {
                                OFFSET   8.364480   0.000000   3.252850
                                CHANNELS 3 Zrotation Xrotation Yrotation
                                JOINT LeftFinger11
                                {
                                    OFFSET   4.646920   0.000000   0.000000
                                    CHANNELS 3 Zrotation Xrotation Yrotation
                                    JOINT LeftFinger12
                                    {
                                        OFFSET   2.323460   0.000000   0.000000
                                        CHANNELS 3 Zrotation Xrotation Yrotation
                                        End Site
                                        {
                                            OFFSET   2.273050   0.000000   0.000000
                                        }
                                    }
                                }
                            }
                            JOINT LeftFinger2
                            {
                                OFFSET   8.364490   0.000016   1.078090
                                CHANNELS 3 Zrotation Xrotation Yrotation
                                JOINT LeftFinger21
                                {
                                    OFFSET   5.111620   0.000000   0.000000
                                    CHANNELS 3 Zrotation Xrotation Yrotation
                                    JOINT LeftFinger22
                                    {
                                        OFFSET   2.788150   0.000012   0.000000
                                        CHANNELS 3 Zrotation Xrotation Yrotation
                                        End Site
                                        {
                                            OFFSET   2.727660   0.000000   0.000000
                                        }
                                    }
                                }
                            }
                            JOINT LeftFinger3
                            {
                                OFFSET   7.899780   0.000014  -1.078090
                                CHANNELS 3 Zrotation Xrotation Yrotation
                                JOINT LeftFinger31
                                {
                                    OFFSET   4.646930   0.000000   0.000000
                                    CHANNELS 3 Zrotation Xrotation Yrotation
                                    JOINT LeftFinger32
                                    {
                                        OFFSET   2.323470   0.000000   0.000000
                                        CHANNELS 3 Zrotation Xrotation Yrotation
                                        End Site
                                        {
                                            OFFSET   2.273050   0.000000   0.000000
                                        }
                                    }
                                }
                            }
                            JOINT LeftFinger4
                            {
                                OFFSET   7.435090   0.000000  -3.252850
                                CHANNELS 3 Zrotation Xrotation Yrotation
                                JOINT LeftFinger41
                                {
                                    OFFSET   3.717550   0.000000   0.000000
                                    CHANNELS 3 Zrotation Xrotation Yrotation
                                    JOINT LeftFinger42
                                    {
                                        OFFSET   1.858770   0.000000   0.000000
                                        CHANNELS 3 Zrotation Xrotation Yrotation
                                        End Site
                                        {
                                            OFFSET   1.818440   0.000000   0.000000
                                        }
                                    }
                                }
                            }
                        }
                    }
                }
            }
            JOINT RightCollar
            {
                OFFSET  -3.911900  19.017000  -0.467063
                CHANNELS 3 Zrotation Xrotation Yrotation
                JOINT RightShoulder
                {
                    OFFSET -10.383700   0.000023   0.000000
                    CHANNELS 3 Zrotation Xrotation Yrotation
                    JOINT RightElbow
                    {
                        OFFSET -26.662100   0.001246   0.001011
                        CHANNELS 3 Zrotation Xrotation Yrotation
                        JOINT RightWrist
                        {
                            OFFSET -28.869000  -0.000026  -0.000078
                            CHANNELS 3 Zrotation Xrotation Yrotation
                            JOINT RightFinger0
                            {
                                OFFSET  -2.044660  -2.323490   3.252850
                                CHANNELS 3 Zrotation Xrotation Yrotation
                                JOINT RightFinger01
                                {
                                    OFFSET  -3.088130   0.000000   0.000000
                                    CHANNELS 3 Zrotation Xrotation Yrotation
                                    JOINT RightFinger02
                                    {
                                        OFFSET  -2.639460   0.000000   0.000000
                                        CHANNELS 3 Zrotation Xrotation Yrotation
                                        End Site
                                        {
                                            OFFSET  -2.582190   0.000000   0.000000
                                        }
                                    }
                                }
                            }
                            JOINT RightFinger1
                            {
                                OFFSET  -8.364480   0.000000   3.252850
                                CHANNELS 3 Zrotation Xrotation Yrotation
                                JOINT RightFinger11
                                {
                                    OFFSET  -4.646920   0.000000   0.000000
                                    CHANNELS 3 Zrotation Xrotation Yrotation
                                    JOINT RightFinger12
                                    {
                                        OFFSET  -2.323470   0.000000   0.000000
                                        CHANNELS 3 Zrotation Xrotation Yrotation
                                        End Site
                                        {
                                            OFFSET  -2.273050   0.000000   0.000000
                                        }
                                    }
                                }
                            }
                            JOINT RightFinger2
                            {
                                OFFSET  -8.364480   0.000000   1.078090
                                CHANNELS 3 Zrotation Xrotation Yrotation
                                JOINT RightFinger21
                                {
                                    OFFSET  -5.111620   0.000000   0.000000
                                    CHANNELS 3 Zrotation Xrotation Yrotation
                                    JOINT RightFinger22
                                    {
                                        OFFSET  -2.788160   0.000000   0.000000
                                        CHANNELS 3 Zrotation Xrotation Yrotation
                                        End Site
                                        {
                                            OFFSET  -2.727660   0.000000   0.000000
                                        }
                                    }
                                }
                            }
                            JOINT RightFinger3
                            {
                                OFFSET  -7.899780   0.000000  -1.078090
                                CHANNELS 3 Zrotation Xrotation Yrotation
                                JOINT RightFinger31
                                {
                                    OFFSET  -4.646930   0.000000   0.000000
                                    CHANNELS 3 Zrotation Xrotation Yrotation
                                    JOINT RightFinger32
                                    {
                                        OFFSET  -2.323470   0.000000   0.000000
                                        CHANNELS 3 Zrotation Xrotation Yrotation
                                        End Site
                                        {
                                            OFFSET  -2.273050   0.000000   0.000000
                                        }
                                    }
                                }
                            }
                            JOINT RightFinger4
                            {
                                OFFSET  -7.435090   0.000000  -3.252850
                                CHANNELS 3 Zrotation Xrotation Yrotation
                                JOINT RightFinger41
                                {
                                    OFFSET  -3.717550   0.000000   0.000000
                                    CHANNELS 3 Zrotation Xrotation Yrotation
                                    JOINT RightFinger42
                                    {
                                        OFFSET  -1.858760   0.000000   0.000000
                                        CHANNELS 3 Zrotation Xrotation Yrotation
                                        End Site
                                        {
                                            OFFSET  -1.818440   0.000000   0.000000
                                        }
                                    }
                                }
                            }
                        }
                    }
                }
            }
        }
    }
    JOINT LeftHip
    {
        OFFSET   9.783010   0.000000   0.000000
        CHANNELS 3 Zrotation Xrotation Yrotation
        JOINT LeftKnee
        {
            OFFSET   0.000073 -41.789100   0.001749
            CHANNELS 3 Zrotation Xrotation Yrotation
            JOINT LeftAnkle
            {
                OFFSET   0.000111 -41.133200  -0.000179
                CHANNELS 3 Zrotation Xrotation Yrotation
                JOINT LeftToe
                {
                    OFFSET   0.000000  -6.358960  14.674500
                    CHANNELS 3 Zrotation Xrotation Yrotation
                    End Site
                    {
                        OFFSET   0.000000   0.000000   3.913200
                    }
                }
            }
        }
    }
    JOINT RightHip
    {
        OFFSET  -9.783010   0.000000   0.000000
        CHANNELS 3 Zrotation Xrotation Yrotation
        JOINT RightKnee
        {
            OFFSET   0.000424 -41.789200   0.005205
            CHANNELS 3 Zrotation Xrotation Yrotation
            JOINT RightAnkle
            {
                OFFSET   0.000000 -41.133200  -0.000155
                CHANNELS 3 Zrotation Xrotation Yrotation
                JOINT RightToe
                {
                    OFFSET   0.000000  -6.358960  14.674500
                    CHANNELS 3 Zrotation Xrotation Yrotation
                    End Site
                    {
                        OFFSET   0.000000   0.000000   3.913200
                    }
                }
            }
        }
    }
}
MOTION
Frames: 4
Frame Time:   0.016667
  1.577560  89.242500   1.070170   4.730150 -10.726000  20.462700   1.770150   9.097900  -1.427740   3.846630  18.143200  -3.205220  -1.556360  -0.731759  -0.020011  -2.560840  -1.481220  -2.964060  -0.712118  -1.225350  11.202300 -39.275400  -7.547290 -71.556700  10.973800 -16.437200 -80.450100 -16.454200  25.345700   7.898580  57.907800  61.020300 -93.978200 -50.808600   0.001404   0.003847 -27.178500   0.001704   0.009708 -88.996200   5.000720  -0.087475 -84.181900  -0.004523   0.004552 -63.136500  -0.004628   0.005992 -88.320500  -0.002962  -0.003440 -88.299900  -0.002018  -0.000856 -66.225000   0.001243  -0.001235 -85.317300  -4.983140   0.407951 -85.335000   0.000507  -0.001272 -64.001300   0.003466   0.000778 -88.984600  -9.996630   0.176302 -110.000000  -0.001919  -0.000842 -79.998200  -0.000030  -0.002058   3.585180   4.527190   9.372150  69.690400   0.220153   3.152160   5.454190  -5.607750  19.446900 -15.632200  -1.948040   2.031740 -37.512700  32.773700  70.562100  30.390800  -0.004843   0.002973  10.195400   0.001273   0.004172  28.541700   3.861170   7.057660  23.547200  -0.055341   0.054592  16.483000  -0.022676   0.046311  28.290700  -0.502804  -0.933867  34.168400   0.000026   0.031054  22.756100   0.018158   0.042477  28.158600  -1.252400  -2.338720  33.271200  -0.017983   0.053977  22.158600   0.016359   0.048942  30.228500  -3.473530  -5.937050  45.617700   0.014412   0.076451  30.381300   0.044169   0.026358   1.565080  13.268700  -2.726570   1.352270   2.362000   3.653500  -4.337030  -3.513690  -4.768890   0.000000   0.000000   0.000000  -0.855422  18.028400  -8.838190   1.954690   0.714793 -20.929000   0.557800  -6.217160  -6.573260  -0.000000   0.000000   0.000000
  1.567410  89.236400   1.088560   4.757870 -10.764500  20.512500   1.737250   9.077010  -1.386800   3.771880  18.103900  -3.115340  -1.611190  -0.501230  -0.014212  -2.651700  -1.015520  -2.643510  -0.750006  -1.226510  11.187200 -39.476700  -7.387240 -71.309900  10.930100 -16.137300 -80.682900 -16.859000  25.441300   8.045400  57.534900  60.927900 -93.048000 -51.022300   0.001317   0.007931 -27.320800   0.001701   0.009773 -88.996200   5.000700  -0.087470 -85.215700  -0.004524   0.004428 -63.911800  -0.004429   0.005750 -88.710500  -0.002905  -0.003443 -88.724700  -0.002084  -0.000980 -66.543600   0.001111  -0.001239 -85.770700  -4.986680   0.368402 -85.786800   0.000501  -0.001195 -64.340100   0.003435   0.000735 -88.984600  -9.996720   0.176302 -110.000000  -0.001904  -0.000805 -79.998200   0.000000  -0.002085   3.597570   4.528610   9.361690  69.669700   0.232109   3.158050   5.416660  -5.589840  19.465300 -15.614000  -1.993310   1.977470 -37.578200  32.806700  70.604900  30.319400  -0.004856   0.002975  10.159700   0.001266   0.004328  28.555900   3.866260   7.062760  23.559200  -0.045157   0.038420  16.491400  -0.022756   0.034781  28.295200  -0.470186  -0.873442  34.201600   0.000297   0.040165  22.778200   0.011800   0.032558  28.165800  -1.228190  -2.291950  33.328600  -0.018584   0.069584  22.196800   0.013909   0.042150  30.238300  -3.436360  -5.870460  45.621600   0.010281   0.052107  30.383900   0.029536   0.019652   1.565950  13.314600  -2.754890   1.357310   2.366300   3.641810  -4.339320  -3.533930  -4.776070   0.000000   0.000000  -0.000000  -0.835352  18.079200  -8.810140   1.960760   0.726699 -20.995400   0.543878  -6.238120  -6.585040  -0.000000   0.000000  -0.000000
  1.556780  89.230800   1.104060   4.782100 -10.803600  20.550800   1.706950   9.051320  -1.345760   3.702260  18.054900  -3.025530  -1.687040  -0.235065  -0.006972  -2.777980  -0.477486  -2.193640  -0.779526  -1.192150  11.187700 -39.644500  -7.232250 -70.965100  10.901000 -15.898100 -81.000600 -17.326200  25.383400   8.175960  57.149900  60.932200 -91.666000 -51.423600   0.001230   0.013672 -27.588100   0.001704   0.009768 -88.996200   5.000680  -0.087472 -85.885300  -0.004509   0.004317 -64.414000  -0.004246   0.005509 -88.950900  -0.002823  -0.003448 -89.083300  -0.002134  -0.001116 -66.812500   0.000968  -0.001241 -86.142700  -4.989490   0.335977 -86.157300   0.000515  -0.001134 -64.618000   0.003397   0.000697 -88.984600  -9.996780   0.176306 -110.000000  -0.001884  -0.000771 -79.998200   0.000000  -0.002115   3.616800   4.546480   9.339890  69.642800   0.231056   3.171890   5.374020  -5.558130  19.485400 -15.614700  -2.023860   1.961990 -37.743400  32.916900  70.738200  30.155500  -0.004846   0.002925  10.077700   0.001269   0.004479  28.569600   3.870560   7.065200  23.570500  -0.033100   0.028531  16.499300  -0.017912   0.025602  28.301900  -0.455645  -0.846080  34.256800   0.000666   0.032306  22.815000   0.006665   0.021530  28.176200  -1.093410  -2.039390  33.359100  -0.013117   0.049379  22.217100   0.007793   0.027985  30.244600  -3.347430  -5.718570  45.615600   0.005288   0.030682  30.380000   0.016984   0.012001   1.567770  13.364800  -2.757850   1.366430   2.365570   3.615420  -4.341430  -3.549440  -4.784410  -0.000000   0.000000   0.000000  -0.799936  18.161000  -8.782960   1.955090   0.676516 -21.072200   0.524326  -6.239290  -6.577750   0.000000   0.000000  -0.000000
  1.545130  89.225400   1.116710   4.803670 -10.843500  20.578200   1.680160   9.025150  -1.306750   3.640180  18.004600  -2.940460  -1.778920   0.059801   0.001892  -2.928220   0.118759  -1.578260  -0.808843  -1.157770  11.192100 -39.786600  -7.102520 -70.518100  10.874800 -15.629500 -81.391400 -17.759000  25.177700   8.253150  56.754300  60.941600 -89.832400 -51.987700   0.001134   0.017447 -27.963800   0.001709   0.009737 -88.996200   5.000660  -0.087475 -86.376500  -0.004478   0.004217 -64.782400  -0.004070   0.005269 -89.043300  -0.002740  -0.003454 -89.435800  -0.002183  -0.001251 -67.076900   0.000825  -0.001242 -86.473700  -4.991550   0.307120 -86.487100   0.000534  -0.001076 -64.865300   0.003358   0.000660 -88.984600  -9.996840   0.176310 -110.000000  -0.001866  -0.000738 -79.998100   0.000000  -0.002146   3.629830   4.571360   9.316810  69.614800   0.223707   3.190060   5.330030  -5.522320  19.508100 -15.622300  -2.053600   1.959810 -37.850700  33.007900  70.829500  30.038600  -0.004837   0.002875  10.019300   0.001273   0.004572  28.585900   3.872790   7.065970  23.584100  -0.020069   0.021399  16.508900  -0.009854   0.018068  28.310500  -0.451133  -0.837448  34.330900   0.001018   0.019283  22.864400   0.004482   0.010997  28.184000  -0.979340  -1.826940  33.405800  -0.005250   0.020173  22.248200   0.004123   0.013292  30.245500  -3.283670  -5.610410  45.609700   0.003603   0.013579  30.376100   0.007926   0.004992   1.570280  13.413100  -2.759650   1.375750   2.364820   3.597330  -4.343600  -3.564920  -4.793480   0.000000   0.000000   0.000000  -0.761145  18.242200  -8.758890   1.947860   0.624927 -21.145600   0.505167  -6.240560  -6.563100   0.000000   0.000000   0.000000
